<?xml version="1.0" encoding="UTF-8" standalone="no"?>
<svg
   enable-background="new 0 0 24 24"
   height="24px"
   viewBox="0 0 24 24"
   width="24px"
   fill="#000000"
   version="1.1"
   id="svg16"
   sodipodi:docname="drive_file_rename_outline_black_24dp.svg"
   inkscape:version="1.1.1 (3bf5ae0, 2021-09-20)"
   xmlns:inkscape="http://www.inkscape.org/namespaces/inkscape"
   xmlns:sodipodi="http://sodipodi.sourceforge.net/DTD/sodipodi-0.dtd"
   xmlns="http://www.w3.org/2000/svg"
   xmlns:svg="http://www.w3.org/2000/svg">
  <defs
     id="defs20" />
  <sodipodi:namedview
     id="namedview18"
     pagecolor="#ffffff"
     bordercolor="#666666"
     borderopacity="1.0"
     inkscape:pageshadow="2"
     inkscape:pageopacity="0.0"
     inkscape:pagecheckerboard="0"
     showgrid="false"
     inkscape:zoom="33.916667"
     inkscape:cx="6.1769042"
     inkscape:cy="12"
     inkscape:window-width="1920"
     inkscape:window-height="994"
     inkscape:window-x="0"
     inkscape:window-y="0"
     inkscape:window-maximized="1"
     inkscape:current-layer="g14" />
  <g
     id="g4">
    <rect
       fill="none"
       height="24"
       width="24"
       id="rect2" />
  </g>
  <g
     id="g14">
    <g
       id="g12"
       style="fill:#b3b3b3;fill-opacity:1">
      <polygon
         points="15,16 11,20 21,20 21,16"
         id="polygon6"
         style="fill:#b3b3b3;fill-opacity:1" />
      <path
         d="M12.06,7.19L3,16.25V20h3.75l9.06-9.06L12.06,7.19z M5.92,18H5v-0.92l7.06-7.06l0.92,0.92L5.92,18z"
         id="path8"
         style="fill:#b3b3b3;fill-opacity:1" />
      <path
         d="M18.71,8.04c0.39-0.39,0.39-1.02,0-1.41l-2.34-2.34C16.17,4.09,15.92,4,15.66,4c-0.25,0-0.51,0.1-0.7,0.29l-1.83,1.83 l3.75,3.75L18.71,8.04z"
         id="path10"
         style="fill:#b3b3b3;fill-opacity:1" />
    </g>
  </g>
</svg>
