<?xml version="1.0" encoding="UTF-8"?>
<!-- 2022-06-01 13:18:14 Generated by QCAD 3.27.1 SVG Exporter -->
<svg width="5.9375in" height="6.0625in" viewBox="0 -6.0625 5.9375 6.0625" version="1.1" xmlns="http://www.w3.org/2000/svg" style="stroke-linecap:round;stroke-linejoin:round;fill:none">
    <g transform="scale(1,-1)">
        <!-- Line -->
        <path d="M0,0 L2,0 " style="stroke:#800000;stroke-width:0.0197;"/>
        <!-- Line -->
        <path d="M5.9375,0 L4,0 " style="stroke:#800000;stroke-width:0.0197;"/>
        <!-- Line -->
        <path d="M0.0625,0.3125 L0.5625,0.3125 " style="stroke:#800000;stroke-width:0.0197;"/>
        <!-- Line -->
        <path d="M1.4375,0.3125 L1.9375,0.3125 " style="stroke:#800000;stroke-width:0.0197;"/>
        <!-- Line -->
        <path d="M0,0 L0.0625,0.3125 " style="stroke:#800000;stroke-width:0.0197;"/>
        <!-- Line -->
        <path d="M1.375,0 L1.4375,0.3125 " style="stroke:#800000;stroke-width:0.0197;"/>
        <!-- Line -->
        <path d="M4,0 L4.0625,0.3125 " style="stroke:#800000;stroke-width:0.0197;"/>
        <!-- Line -->
        <path d="M2,0 L1.9375,0.3125 " style="stroke:#800000;stroke-width:0.0197;"/>
        <!-- Line -->
        <path d="M0.625,0 L0.5625,0.3125 " style="stroke:#800000;stroke-width:0.0197;"/>
        <!-- Line -->
        <path d="M5.9375,0 L5.85,0.4375 " style="stroke:#800000;stroke-width:0.0197;"/>
        <!-- Arc -->
        <path d="M1.3741,1.7128 A0.375,0.375 0 0,1 0.6259,1.7128" style="stroke:#800000;stroke-width:0.0197;"/>
        <!-- Line -->
        <path d="M0.5625,0.3125 L0.6259,1.7128 " style="stroke:#800000;stroke-width:0.0197;"/>
        <!-- Line -->
        <path d="M1.4375,0.3125 L1.3741,1.7128 " style="stroke:#800000;stroke-width:0.0197;"/>
        <!-- Circle -->
        <circle cx="1" cy="1.6875" r="0.09375" style="stroke:#800000;stroke-width:0.0197;"/>
        <!-- Line -->
        <path d="M4.0625,0.3125 L5.875,0.3125 " style="stroke:#800000;stroke-width:0.0197;"/>
        <!-- Line -->
        <path d="M4.7429,2.0625 L4.5898,0.3125 " style="stroke:#800000;stroke-width:0.0197;"/>
        <!-- Line -->
        <path d="M5.0548,2.0625 L5.157,0.8939 " style="stroke:#800000;stroke-width:0.0197;"/>
        <!-- Line -->
        <path d="M4.7429,2.0625 L5.0548,2.0625 " style="stroke:#800000;stroke-width:0.0197;"/>
        <!-- Line -->
        <path d="M5.85,0.4375 L5.6551,0.4375 " style="stroke:#800000;stroke-width:0.0197;"/>
        <!-- Arc -->
        <path d="M5.157,0.8939 A0.5,0.5 0 0,1 5.6551,0.4375" style="stroke:#800000;stroke-width:0.0197;"/>
        <!-- Line -->
        <path d="M0,4.125 L0.625,4.125 " style="stroke:#800000;stroke-width:0.0197;"/>
        <!-- Line -->
        <path d="M1.375,4.125 L2,4.125 " style="stroke:#800000;stroke-width:0.0197;"/>
        <!-- Line -->
        <path d="M0.625,4.125 L0.625,4.6875 " style="stroke:#800000;stroke-width:0.0197;"/>
        <!-- Line -->
        <path d="M0,4.125 L0,6.0625 " style="stroke:#800000;stroke-width:0.0197;"/>
        <!-- Line -->
        <path d="M1.375,4.125 L1.375,4.6875 " style="stroke:#800000;stroke-width:0.0197;"/>
        <!-- Line -->
        <path d="M2,4.125 L2,6.0625 " style="stroke:#800000;stroke-width:0.0197;"/>
        <!-- Line -->
        <path d="M0.0625,4.1875 L0.0625,6 " style="stroke:#800000;stroke-width:0.0197;"/>
        <!-- Line -->
        <path d="M1.9375,4.1875 L1.9375,6 " style="stroke:#800000;stroke-width:0.0197;"/>
        <!-- Line -->
        <path d="M0,6.0625 L2,6.0625 " style="stroke:#800000;stroke-width:0.0197;"/>
        <!-- Line -->
        <path d="M0.5625,4.1875 L0.5625,6 " style="stroke:#800000;stroke-width:0.0197;"/>
        <!-- Line -->
        <path d="M1.4375,4.1875 L1.4375,6 " style="stroke:#800000;stroke-width:0.0197;"/>
        <!-- Line -->
        <path d="M0.0625,6 L0.5625,6 " style="stroke:#800000;stroke-width:0.0197;"/>
        <!-- Line -->
        <path d="M1.4375,6 L1.9375,6 " style="stroke:#800000;stroke-width:0.0197;"/>
        <!-- Line -->
        <path d="M0.0625,4.1875 L0.5625,4.1875 " style="stroke:#800000;stroke-width:0.0197;"/>
        <!-- Line -->
        <path d="M1.4375,4.1875 L1.9375,4.1875 " style="stroke:#800000;stroke-width:0.0197;"/>
        <!-- Line -->
        <path d="M0.5625,5.1798 L1.4375,5.1798 " style="stroke:#800000;stroke-width:0.0197;"/>
        <!-- Line -->
        <path d="M1.4375,4.8679 L0.5625,4.8679 " style="stroke:#800000;stroke-width:0.0197;"/>
        <!-- Line -->
        <path d="M0.5625,5.975 L1.4375,5.975 " style="stroke:#800000;stroke-width:0.0197;"/>
        <!-- Line -->
        <path d="M0.625,4.6875 L1.375,4.6875 " style="stroke:#800000;stroke-width:0.0197;"/>
        <!-- Line -->
        <path d="M0.625,4.6875 L0.5625,4.8679 " style="stroke:#800000;stroke-width:0.0197;"/>
        <!-- Line -->
        <path d="M1.375,4.6875 L1.4375,4.8679 " style="stroke:#800000;stroke-width:0.0197;"/>
        <!-- Line -->
        <path d="M0,6.0625 L0.0625,6 " style="stroke:#800000;stroke-width:0.0197;"/>
        <!-- Line -->
        <path d="M1.9375,6 L2,6.0625 " style="stroke:#800000;stroke-width:0.0197;"/>
        <!-- Line -->
        <path d="M1.9375,4.1875 L2,4.125 " style="stroke:#800000;stroke-width:0.0197;"/>
        <!-- Line -->
        <path d="M1.4375,4.1875 L1.375,4.125 " style="stroke:#800000;stroke-width:0.0197;"/>
        <!-- Line -->
        <path d="M0.5625,4.1875 L0.625,4.125 " style="stroke:#800000;stroke-width:0.0197;"/>
        <!-- Line -->
        <path d="M0.0625,4.1875 L0,4.125 " style="stroke:#800000;stroke-width:0.0197;"/>
    </g>
</svg>
