<?xml version="1.0" encoding="UTF-8"?>
<!-- 2022-06-02 23:30:15 Generated by QCAD 3.27.1 SVG Exporter -->
<svg width="6.6446in" height="6.7696in" viewBox="0 -6.7696 6.6446 6.7696" version="1.1" xmlns="http://www.w3.org/2000/svg" style="stroke-linecap:round;stroke-linejoin:round;fill:none">
    <g transform="scale(1,-1)">
        <!-- Line -->
        <path d="M0,0 L2,0 " style="stroke:#800000;stroke-width:0.0197;"/>
        <!-- Line -->
        <path d="M5.9375,0 L4,0 " style="stroke:#800000;stroke-width:0.0197;"/>
        <!-- Line -->
        <path d="M0.0625,0.3125 L0.5625,0.3125 " style="stroke:#800000;stroke-width:0.0197;"/>
        <!-- Line -->
        <path d="M1.4375,0.3125 L1.9375,0.3125 " style="stroke:#800000;stroke-width:0.0197;"/>
        <!-- Line -->
        <path d="M0,0 L0.0625,0.3125 " style="stroke:#800000;stroke-width:0.0197;"/>
        <!-- Line -->
        <path d="M1.375,0 L1.4375,0.3125 " style="stroke:#800000;stroke-width:0.0197;"/>
        <!-- Line -->
        <path d="M4,0 L4.0625,0.3125 " style="stroke:#800000;stroke-width:0.0197;"/>
        <!-- Line -->
        <path d="M2,0 L1.9375,0.3125 " style="stroke:#800000;stroke-width:0.0197;"/>
        <!-- Line -->
        <path d="M0.625,0 L0.5625,0.3125 " style="stroke:#800000;stroke-width:0.0197;"/>
        <!-- Line -->
        <path d="M5.9375,0 L5.85,0.4375 " style="stroke:#800000;stroke-width:0.0197;"/>
        <!-- Arc -->
        <path d="M1.3741,1.7128 A0.375,0.375 0 0,1 0.6259,1.7128" style="stroke:#800000;stroke-width:0.0197;"/>
        <!-- Line -->
        <path d="M0.5625,0.3125 L0.6259,1.7128 " style="stroke:#800000;stroke-width:0.0197;"/>
        <!-- Line -->
        <path d="M1.4375,0.3125 L1.3741,1.7128 " style="stroke:#800000;stroke-width:0.0197;"/>
        <!-- Circle -->
        <circle cx="1" cy="1.6875" r="0.09375" style="stroke:#800000;stroke-width:0.0197;"/>
        <!-- Line -->
        <path d="M0.5682,0.4375 L0.6161,0.4375 M0.6457,0.4375 L0.7638,0.4375 M0.7933,0.4375 L0.9114,0.4375 M0.9409,0.4375 L1.0591,0.4375 M1.0886,0.4375 L1.2067,0.4375 M1.2362,0.4375 L1.3543,0.4375 M1.3839,0.4375 L1.4318,0.4375 " style="stroke:#000080;stroke-width:0.0098;"/>
        <!-- Line -->
        <path d="M4.0625,0.3125 L5.875,0.3125 " style="stroke:#800000;stroke-width:0.0197;"/>
        <!-- Line -->
        <path d="M4.7429,2.0625 L4.5898,0.3125 " style="stroke:#800000;stroke-width:0.0197;"/>
        <!-- Line -->
        <path d="M4.5898,0.3125 L4.5839,0.2445 M4.5813,0.2151 L4.571,0.0974 M4.5684,0.068 L4.5625,0 " style="stroke:#000080;stroke-width:0.0098;"/>
        <!-- Line -->
        <path d="M5.0548,2.0625 L5.157,0.8939 " style="stroke:#800000;stroke-width:0.0197;"/>
        <!-- Line -->
        <path d="M4.7183,1.7813 L4.8103,1.7813 M4.8398,1.7813 L4.9579,1.7813 M4.9874,1.7813 L5.0794,1.7813 " style="stroke:#000080;stroke-width:0.0098;"/>
        <!-- Line -->
        <path d="M4.7019,1.5938 L4.8103,1.5938 M4.8398,1.5938 L4.9579,1.5938 M4.9874,1.5938 L5.0958,1.5938 " style="stroke:#000080;stroke-width:0.0098;"/>
        <!-- Line -->
        <path d="M4.7429,2.0625 L5.0548,2.0625 " style="stroke:#800000;stroke-width:0.0197;"/>
        <!-- Line -->
        <path d="M5.85,0.4375 L5.6551,0.4375 " style="stroke:#800000;stroke-width:0.0197;"/>
        <!-- Arc -->
        <path d="M5.157,0.8939 A0.5,0.5 0 0,1 5.6551,0.4375" style="stroke:#800000;stroke-width:0.0197;"/>
        <!-- Line -->
        <path d="M0,4.125 L0.625,4.125 " style="stroke:#800000;stroke-width:0.0197;"/>
        <!-- Line -->
        <path d="M1.375,4.125 L2,4.125 " style="stroke:#800000;stroke-width:0.0197;"/>
        <!-- Line -->
        <path d="M0.625,4.125 L0.625,4.6875 " style="stroke:#800000;stroke-width:0.0197;"/>
        <!-- Line -->
        <path d="M0,4.125 L0,6.0625 " style="stroke:#800000;stroke-width:0.0197;"/>
        <!-- Line -->
        <path d="M1.375,4.125 L1.375,4.6875 " style="stroke:#800000;stroke-width:0.0197;"/>
        <!-- Line -->
        <path d="M2,4.125 L2,6.0625 " style="stroke:#800000;stroke-width:0.0197;"/>
        <!-- Line -->
        <path d="M0.0625,4.1875 L0.0625,6 " style="stroke:#800000;stroke-width:0.0197;"/>
        <!-- Line -->
        <path d="M1.9375,4.1875 L1.9375,6 " style="stroke:#800000;stroke-width:0.0197;"/>
        <!-- Line -->
        <path d="M0,6.0625 L2,6.0625 " style="stroke:#800000;stroke-width:0.0197;"/>
        <!-- Line -->
        <path d="M0.9063,4.8679 L0.9063,4.9353 M0.9063,4.9648 L0.9063,5.0829 M0.9063,5.1124 L0.9063,5.1798 " style="stroke:#000080;stroke-width:0.0098;"/>
        <!-- Line -->
        <path d="M1.0938,4.8679 L1.0938,4.9353 M1.0938,4.9648 L1.0938,5.0829 M1.0938,5.1124 L1.0938,5.1798 " style="stroke:#000080;stroke-width:0.0098;"/>
        <!-- Line -->
        <path d="M0.5625,4.1875 L0.5625,6 " style="stroke:#800000;stroke-width:0.0197;"/>
        <!-- Line -->
        <path d="M1.4375,4.1875 L1.4375,6 " style="stroke:#800000;stroke-width:0.0197;"/>
        <!-- Line -->
        <path d="M0.0625,6 L0.5625,6 " style="stroke:#800000;stroke-width:0.0197;"/>
        <!-- Line -->
        <path d="M1.4375,6 L1.9375,6 " style="stroke:#800000;stroke-width:0.0197;"/>
        <!-- Line -->
        <path d="M0.0625,4.1875 L0.5625,4.1875 " style="stroke:#800000;stroke-width:0.0197;"/>
        <!-- Line -->
        <path d="M1.4375,4.1875 L1.9375,4.1875 " style="stroke:#800000;stroke-width:0.0197;"/>
        <!-- Line -->
        <path d="M1,5.4298 L1,5.2601 M1,5.2305 L1,5.1715 M1,5.142 L1,4.9057 M1,4.8762 L1,4.8172 M1,4.7876 L1,4.6179 " style="stroke:#00ff00;stroke-width:0.0098;"/>
        <!-- Line -->
        <path d="M4.4601,1.6875 L4.6626,1.6875 M4.6922,1.6875 L4.7512,1.6875 M4.7807,1.6875 L5.017,1.6875 M5.0465,1.6875 L5.1055,1.6875 M5.1351,1.6875 L5.3376,1.6875 " style="stroke:#00ff00;stroke-width:0.0098;"/>
        <!-- Line -->
        <path d="M0.6563,1.6875 L0.7638,1.6875 M0.7933,1.6875 L0.8524,1.6875 M0.8819,1.6875 L1.1181,1.6875 M1.1476,1.6875 L1.2067,1.6875 M1.2362,1.6875 L1.3438,1.6875 " style="stroke:#00ff00;stroke-width:0.0098;"/>
        <!-- Line -->
        <path d="M1,1.3438 L1,1.4513 M1,1.4808 L1,1.5399 M1,1.5694 L1,1.8056 M1,1.8351 L1,1.8942 M1,1.9237 L1,2.0313 " style="stroke:#00ff00;stroke-width:0.0098;"/>
        <!-- Infinite Line -->
        <!-- Line -->
        <path d="M0.5625,5.1798 L1.4375,5.1798 " style="stroke:#800000;stroke-width:0.0197;"/>
        <!-- Line -->
        <path d="M1.4375,4.8679 L0.5625,4.8679 " style="stroke:#800000;stroke-width:0.0197;"/>
        <!-- Line -->
        <path d="M0.5625,5.975 L1.4375,5.975 " style="stroke:#800000;stroke-width:0.0197;"/>
        <!-- Line -->
        <path d="M0.625,4.6875 L1.375,4.6875 " style="stroke:#800000;stroke-width:0.0197;"/>
        <!-- Line -->
        <path d="M0.625,4.6875 L0.5625,4.8679 " style="stroke:#800000;stroke-width:0.0197;"/>
        <!-- Line -->
        <path d="M1.375,4.6875 L1.4375,4.8679 " style="stroke:#800000;stroke-width:0.0197;"/>
        <!-- Line -->
        <path d="M0,6.0625 L0.0625,6 " style="stroke:#800000;stroke-width:0.0197;"/>
        <!-- Line -->
        <path d="M1.9375,6 L2,6.0625 " style="stroke:#800000;stroke-width:0.0197;"/>
        <!-- Line -->
        <path d="M1.9375,4.1875 L2,4.125 " style="stroke:#800000;stroke-width:0.0197;"/>
        <!-- Line -->
        <path d="M1.4375,4.1875 L1.375,4.125 " style="stroke:#800000;stroke-width:0.0197;"/>
        <!-- Line -->
        <path d="M0.5625,4.1875 L0.625,4.125 " style="stroke:#800000;stroke-width:0.0197;"/>
        <!-- Line -->
        <path d="M0.0625,4.1875 L0,4.125 " style="stroke:#800000;stroke-width:0.0197;"/>
    </g>
</svg>
